<?xml version="1.0" encoding="utf-8"?>
<!-- Generator: Adobe Illustrator 19.2.1, SVG Export Plug-In . SVG Version: 6.00 Build 0)  -->
<svg _ngcontent-bqv-c2="" xml:space="preserve" xmlns:xlink="http://www.w3.org/1999/xlink" class="payment-method-icon" id="layer" style="enable-background:new 0 0 452 452;" version="1.1" viewBox="0 0 552 552" x="0px" xmlns="http://www.w3.org/2000/svg" y="0px"><style _ngcontent-bqv-c2="" type="text/css"> .st0{fill:#03a9f4 ;}
</style><g _ngcontent-bqv-c2="" transform="matrix(.9,0,0,1,-79.6,-113.1)"><path _ngcontent-bqv-c2="" class="st0" d="M694,339.8h-31.2L644.7,416l-2.5,10.5c-1.7,0.5-3.5,1-5.2,1.3c-3.2,0.6-6.5,1-10,1
		c-4,0-7.1-0.6-9.5-1.7c-2.2-1.1-4-2.7-4.9-4.9c-1-2.1-1.3-4.6-1.1-7.4c0.2-2.9,0.8-6,1.6-9.2l9.5-39.6l6.2-26.3h-31.8l-14.4,60.8
		c-1.7,7.3-2.7,14.3-3,20.9c-0.3,6.7,0.8,12.4,3,17.6c2.2,5.1,6.2,9,11.6,12c5.4,3,13.2,4.4,23,4.4c6.8,0,12.8-0.6,17.9-1.7
		c0.2,0,0.5-0.2,0.6-0.2c-1.4,6.3-4.3,11.4-8.7,15.4c-4.6,4-11.2,6-20.1,6c-3.8,0-7.3-0.2-10.5-0.6l-6.2,25.8
		c4.1,0.5,8.7,0.8,13.8,0.8c9.5,0,17.7-1.1,24.9-3.2c7.1-2.2,13.2-5.4,18.4-9.8c5.1-4.4,9.3-10,12.8-16.5c3.5-6.7,6.2-14.4,8.2-23.6
		l21.5-90.6L694,339.8z" id="y_2_"></path><path _ngcontent-bqv-c2="" class="st0" d="M563.3,404.9c-1.9,7.9-2.5,16-1.7,23.9c0.8,8.1,4,20.3,7,26.5h-30.1c-3.6-6.2-3.5-9.2-4.3-11.1
		c-4,3.2-8.2,5.9-13,7.9s-10,3.2-16,3.2c-7,0-13-1.3-17.9-3.6c-4.9-2.4-9-5.7-12.2-9.8c-3.2-4.1-5.4-8.9-6.8-14.4
		c-1.4-5.5-2.1-11.4-2.1-17.7c0-9.7,1.7-18.7,5.1-27.3c3.5-8.6,8.2-16,14.3-22.3c6-6.3,20.8-20.4,44.8-20.4c10.5,0,24.4,0,48.3,0
		L563.3,404.9z M541.3,366.1c-14.6,0-17.3,0-23.3,3c-4.3,2.2-7.8,5.5-10.8,9.3c-3,3.8-5.5,8.2-7.3,13.3c-1.7,5.1-2.7,10.3-2.7,15.7
		c0,6.7,1.1,12,3.3,16c2.2,4,6.3,5.9,12.4,5.9c3.2,0,6.2-0.6,8.7-1.9c2.5-1.3,5.4-3.3,8.2-6.3c0.3-3.5,0.8-7.1,1.4-10.9
		c0.6-3.8,1.4-7.4,2.1-10.6L541.3,366.1" id="a_2_"></path><path _ngcontent-bqv-c2="" class="st0" d="M457.6,385.6c0,10.3-1.7,19.6-5.1,28.2c-3.3,8.6-8.1,15.8-14.1,22c-6,6.2-13.2,10.9-21.5,14.4
		c-8.4,3.5-17.4,5.2-27.3,5.2c-4.8,0-9.5-0.5-14.4-1.3l-9.5,38.2h-31.2L370.8,340c5.2,0,33.1,0,41.7,0c7.9,0,14.7,1.3,20.3,3.6
		c5.7,2.4,10.3,5.7,14.1,9.8c3.6,4.1,6.3,9,8.1,14.6C456.8,373.4,457.6,379.3,457.6,385.6z M381.1,428.8c2.4,0.6,5.4,0.8,8.9,0.8
		c5.5,0,10.5-1,15.1-3c4.4-2.1,8.4-4.9,11.6-8.6c3.2-3.6,5.5-8.1,7.4-13.2c1.7-5.1,2.7-10.8,2.7-17c0-6-1.3-11.2-4-15.4
		c-2.7-4.3-7.3-6.5-13.9-6.5c-4.6,0-12.4,0-12.4,0L381.1,428.8z" id="p_2_"></path><path _ngcontent-bqv-c2="" class="st0" d="M315.5,428.8c-4,0-7.1-0.6-9.5-1.7c-2.2-1.1-4-2.7-4.9-4.9c-1-2.1-1.3-4.6-1.1-7.4
		c0.2-2.9,0.8-6,1.6-9.2l9.5-39.6h35.5l6.5-26.3h-35.6l8.2-33.3l-33.3,5.2l-21.1,89c-1.7,7.3-2.7,14.3-3,20.9
		c-0.3,6.7,0.8,12.4,3,17.6c2.2,5.1,6.2,9,11.6,12c5.4,3,13.2,4.4,23,4.4c6.8,0,12.8-0.6,17.9-1.7c0.5-0.2,1.3-0.3,1.7-0.5l6.5-27.1
		c-2.2,0.8-4.4,1.3-6.5,1.6C322.3,428.5,319,428.8,315.5,428.8z" id="t_2_"></path><path _ngcontent-bqv-c2="" class="st0" d="M236.1,339.8l-27.6,115.7h31.2l27.4-115.7H236.1z" id="i_bottom_6_"></path><path _ngcontent-bqv-c2="" class="st0" d="M270.5,326.5l4.8-20.1H244l-4.8,20.1H270.5z" id="i_top_2_"></path><path _ngcontent-bqv-c2="" class="st0" d="M167,340c6.7,0,12.5,1.3,17.4,3.6c4.9,2.4,8.9,5.5,12.2,9.7c3.2,4.1,5.5,8.9,7.1,14.3
		c1.6,5.4,2.4,11.2,2.4,17.6c0,9.7-1.7,18.7-5.4,27.4c-3.6,8.6-8.4,16.2-14.6,22.5s-13.5,11.4-21.9,15.1c-8.4,3.6-17.4,5.5-27.3,5.5
		c-1.3,0-3.5,0-6.7-0.2c-3.2,0-6.8-0.3-10.8-1c-4.1-0.6-8.4-1.4-12.8-2.5c-4.6-1.1-8.9-2.7-12.8-4.6L130.3,295l32.5-5.1l-12.8,54
		c2.9-1.3,5.4-2.2,8.2-2.9C160.9,340.3,163.9,340,167,340z M139.8,429.6c4.9,0,9.5-1.1,13.8-3.6c4.3-2.4,8.1-5.5,11.2-9.5
		c3.2-4,5.7-8.6,7.4-13.5c1.7-5.1,2.7-10.3,2.7-15.7c0-6.7-1.1-11.9-3.3-15.7s-6.8-5.5-12.8-5.5c-1.9,0-4,0.2-7.1,1
		c-3.2,0.6-5.9,2.2-8.4,4.4L129.7,429C133.8,429.6,138.2,429.6,139.8,429.6z" id="b_2_"></path></g></svg>
